HIERARCHY
ROOT Hips
{
	OFFSET 0.00 0.00 0.00
	CHANNELS 6 Xposition Yposition Zposition Xrotation Yrotation Zrotation
	JOINT Spine
	{
		OFFSET 0.00000 7.06766 0.00000
		CHANNELS 3 Xrotation Yrotation Zrotation
		JOINT Head
		{
			OFFSET 0.00000 15.03989 0.00000
			CHANNELS 3 Xrotation Yrotation Zrotation
			End Site
			{
				OFFSET 0.00000 4.52755 0.00000
			}
		}
		JOINT LeftShoulder
		{
			OFFSET 0.00000 10.53037 0.00000
			CHANNELS 3 Xrotation Yrotation Zrotation
			JOINT LeftArm
			{
				OFFSET 7.02886 0.00000 0.00000
				CHANNELS 3 Xrotation Yrotation Zrotation
				JOINT LeftForeArm
				{
					OFFSET 10.79770 0.00000 0.00000
					CHANNELS 3 Yrotation Zrotation Xrotation
					JOINT LeftHand
					{
						OFFSET 7.90744 0.00000 0.00000
						CHANNELS 3 Xrotation Yrotation Zrotation
						JOINT LeftHandThumb1
						{
							OFFSET 0.00000 0.00000 0.00000
							CHANNELS 3 Xrotation Zrotation Yrotation
							End Site
							{
								OFFSET 0.00000 0.00000 3.93700
							}
						}
						End Site
						{
							OFFSET 3.93700 0.00000 0.00000
						}
					}
				}
			}
		}
		JOINT RightShoulder
		{
			OFFSET 0.00000 10.53037 0.00000
			CHANNELS 3 Xrotation Yrotation Zrotation
			JOINT RightArm
			{
				OFFSET -7.02886 0.00000 0.00000
				CHANNELS 3 Xrotation Yrotation Zrotation
				JOINT RightForeArm
				{
					OFFSET -10.79770 0.00000 0.00000
					CHANNELS 3 Yrotation Zrotation Xrotation
					JOINT RightHand
					{
						OFFSET -7.90744 0.00000 0.00000
						CHANNELS 3 Xrotation Yrotation Zrotation
						JOINT RightHandThumb1
						{
							OFFSET 0.00000 0.00000 0.00000
							CHANNELS 3 Xrotation Zrotation Yrotation
							End Site
							{
								OFFSET 0.00000 0.00000 3.93700
							}
						}
						End Site
						{
							OFFSET -3.93700 0.00000 0.00000
						}
					}
				}
			}
		}
	}
	JOINT LeftUpLeg
	{
		OFFSET 4.01300 0.00000 0.00000
		CHANNELS 3 Xrotation Yrotation Zrotation
		JOINT LeftLeg
		{
			OFFSET 0.00000 -16.89976 0.00000
			CHANNELS 3 Xrotation Yrotation Zrotation
			JOINT LeftFoot
			{
				OFFSET 0.00000 -17.38918 0.00000
				CHANNELS 3 Xrotation Yrotation Zrotation
				JOINT LeftToeBase
				{
					OFFSET 0.00000 -1.27456 4.75673
					CHANNELS 3 Xrotation Yrotation Zrotation
					End Site
					{
						OFFSET 0.00000 0.00000 2.95275
					}
				}
			}
		}
	}
	JOINT RightUpLeg
	{
		OFFSET -4.01300 0.00000 0.00000
		CHANNELS 3 Xrotation Yrotation Zrotation
		JOINT RightLeg
		{
			OFFSET 0.00000 -16.89976 0.00000
			CHANNELS 3 Xrotation Yrotation Zrotation
			JOINT RightFoot
			{
				OFFSET 0.00000 -17.38918 0.00000
				CHANNELS 3 Xrotation Yrotation Zrotation
				JOINT RightToeBase
				{
					OFFSET 0.00000 -1.27456 4.75673
					CHANNELS 3 Xrotation Yrotation Zrotation
					End Site
					{
						OFFSET 0.00000 0.00000 2.95275
					}
				}
			}
		}
	}
}
MOTION
Frames: 17
Frame Time: 0.008333
 18.4090 35.3491 -24.0831 177.3561 -2.9126 179.3508 -12.5707 -1.8502 -0.6712 8.4431 -2.8750 1.5958 -30.7173 4.4207 16.9262 0.1429 -4.9533 -8.6859 2.8125 0.0000 10.3709 0.5762 8.3951 -3.9405 33.1476 -0.0000 26.2537 6.0280 -14.1432 -8.1021 -36.6092 4.5958 8.5331 6.6110 -0.0000 37.8007 1.3394 -10.5233 7.2954 32.8623 0.0000 -24.3270 6.9169 9.6734 2.5728 -6.2307 -0.0000 -0.0000 -17.6661 28.2600 3.4038 24.7690 -0.0000 0.0000 6.3346 -13.0779 -1.3345 -4.1214 0.0000 0.0000 -17.8290 -31.6846 -1.9248 24.9293 0.0000 -0.0000
 18.4109 35.3490 -24.0826 177.3495 -2.9098 179.3469 -12.5695 -1.8652 -0.6706 8.4346 -2.8692 1.6016 -30.7171 4.4285 16.9285 0.1411 -4.9566 -8.6774 2.8050 0.0000 10.3538 0.5766 8.3917 -3.9446 33.1476 -0.0000 26.2537 6.0866 -14.1940 -8.0961 -36.5646 4.6937 8.5713 6.5666 -0.0000 37.6601 1.3285 -10.5073 7.2473 32.8623 0.0000 -24.3270 6.9161 9.6584 2.5789 -6.2419 0.0000 0.0000 -17.6670 28.2828 3.4063 24.7413 0.0000 0.0000 6.3315 -13.0974 -1.3249 -4.1301 0.0000 -0.0000 -17.8187 -31.6759 -1.9265 24.9726 -0.0000 0.0000
 18.4119 35.3486 -24.0821 177.3380 -2.9110 179.3435 -12.5682 -1.8645 -0.6743 8.4041 -2.8845 1.6142 -30.7300 4.4141 16.9463 0.1343 -4.9518 -8.7020 2.7977 0.0000 10.3376 0.5725 8.4022 -3.9123 33.1476 -0.0000 26.2537 6.1043 -14.2299 -8.0827 -36.6073 4.7279 8.5894 6.5576 -0.0000 37.6896 1.2938 -10.2839 7.2101 32.8623 0.0000 -24.3270 6.9034 9.6552 2.5835 -6.2415 0.0000 0.0000 -17.6520 28.2666 3.4285 24.6956 -0.0000 0.0000 6.3308 -13.0979 -1.3201 -4.1477 -0.0000 -0.0000 -17.7864 -31.6980 -1.8615 24.9370 0.0000 -0.0000
 18.4132 35.3486 -24.0814 177.3317 -2.9029 179.3429 -12.5594 -1.8697 -0.6766 8.3803 -2.8319 1.5929 -30.7252 4.4336 16.9582 0.1246 -4.9791 -8.7193 2.8143 0.0000 10.3043 0.5683 8.4196 -3.8753 33.1476 -0.0000 26.2537 6.0939 -14.2308 -8.0775 -36.6134 4.7369 8.5923 6.5963 -0.0000 37.6650 1.3083 -10.3261 7.2608 32.8623 0.0000 -24.3270 6.8964 9.6697 2.5837 -6.2480 -0.0000 -0.0000 -17.6742 28.2945 3.4113 24.6537 -0.0000 -0.0000 6.3260 -13.1053 -1.3178 -4.1564 -0.0000 -0.0000 -17.8042 -31.6467 -1.9064 24.9585 0.0000 -0.0000
 18.4154 35.3488 -24.0803 177.3190 -2.8879 179.3376 -12.5633 -1.8624 -0.6748 8.3729 -2.8103 1.5984 -30.7373 4.4240 16.9604 0.1445 -4.9789 -8.7243 2.8168 0.0000 10.2837 0.5667 8.4267 -3.8615 33.1476 -0.0000 26.2537 6.1010 -14.2315 -8.0647 -36.6175 4.7561 8.5892 6.5802 -0.0000 37.6336 1.3019 -10.3177 7.2315 32.8623 0.0000 -24.3270 6.8878 9.6781 2.5915 -6.2565 0.0000 0.0000 -17.6644 28.2844 3.4152 24.7583 -0.0000 0.0000 6.3143 -13.0905 -1.3102 -4.1592 0.0000 0.0000 -17.7764 -31.6789 -1.8548 24.8948 -0.0000 0.0000
 18.4161 35.3486 -24.0797 177.3094 -2.8844 179.3405 -12.5646 -1.8755 -0.6810 8.3625 -2.8069 1.5966 -30.7373 4.4348 16.9601 0.1499 -4.9923 -8.7195 2.8302 0.0000 10.2891 0.5717 8.4265 -3.8957 33.1476 -0.0000 26.2537 6.1065 -14.2291 -8.0587 -36.6448 4.7697 8.5962 6.5811 -0.0000 37.6329 1.2984 -10.3343 7.2011 32.8623 0.0000 -24.3270 6.8775 9.6812 2.5870 -6.2570 -0.0000 -0.0000 -17.6674 28.3060 3.4019 24.8256 -0.0000 0.0000 6.3073 -13.1167 -1.3127 -4.1731 -0.0000 -0.0000 -17.7851 -31.6571 -1.9170 25.1152 -0.0000 0.0000
 18.4170 35.3484 -24.0792 177.3016 -2.8673 179.3376 -12.5638 -1.8608 -0.6769 8.3393 -2.8872 1.6227 -30.7380 4.4394 16.9578 0.1449 -5.0112 -8.7274 2.8472 0.0000 10.2709 0.5715 8.4155 -3.8994 33.1476 -0.0000 26.2537 6.0939 -14.2336 -8.0679 -36.6664 4.7597 8.6155 6.5939 -0.0000 37.6637 1.3026 -10.3331 7.2249 32.8623 0.0000 -24.3270 6.8728 9.6995 2.5904 -6.2610 -0.0000 -0.0000 -17.6649 28.2900 3.4178 24.7665 0.0000 0.0000 6.2999 -13.1099 -1.3088 -4.1775 0.0000 0.0000 -17.7837 -31.6172 -1.8922 25.0025 -0.0000 0.0000
 18.4181 35.3483 -24.0783 177.2870 -2.8493 179.3315 -12.5712 -1.8535 -0.6702 8.3327 -2.8393 1.5962 -30.7521 4.4380 16.9502 0.1575 -5.0163 -8.7190 2.8620 0.0000 10.2517 0.5829 8.3976 -3.9848 33.1476 -0.0000 26.2537 6.0939 -14.2277 -8.0579 -36.6410 4.7738 8.6055 6.5848 -0.0000 37.6190 1.3002 -10.3319 7.2122 32.8623 0.0000 -24.3270 6.8678 9.6999 2.5941 -6.2763 0.0000 0.0000 -17.6549 28.2931 3.4249 24.7598 -0.0000 -0.0000 6.2854 -13.1112 -1.3018 -4.1860 -0.0000 -0.0000 -17.7776 -31.6049 -1.8943 24.9523 -0.0000 0.0000
 18.4187 35.3479 -24.0784 177.2797 -2.8333 179.3280 -12.5726 -1.8510 -0.6645 8.3270 -2.8086 1.5942 -30.7505 4.4527 16.9556 0.1335 -5.0328 -8.7326 2.8879 0.0000 10.2577 0.5860 8.3808 -4.0140 33.1476 -0.0000 26.2537 6.0845 -14.2134 -8.0655 -36.6027 4.7692 8.6073 6.5921 -0.0000 37.5662 1.3021 -10.3312 7.2235 32.8623 0.0000 -24.3270 6.8667 9.7136 2.5952 -6.2834 -0.0000 -0.0000 -17.6436 28.2863 3.4375 24.6982 -0.0000 0.0000 6.2782 -13.1127 -1.2981 -4.1909 -0.0000 0.0000 -17.7744 -31.5888 -1.8931 24.9547 -0.0000 0.0000
 18.4199 35.3479 -24.0779 177.2705 -2.8163 179.3202 -12.5727 -1.8365 -0.6549 8.3152 -2.8124 1.5948 -30.7597 4.4535 16.9515 0.1239 -5.0362 -8.7426 2.8870 0.0000 10.2539 0.5859 8.3800 -4.0138 33.1476 -0.0000 26.2537 6.0638 -14.2171 -8.0698 -36.5921 4.7620 8.6180 6.5995 -0.0000 37.5716 1.3011 -10.3037 7.2368 32.8623 0.0000 -24.3270 6.8593 9.7375 2.6014 -6.2894 0.0000 0.0000 -17.6338 28.2857 3.4451 24.6682 -0.0000 0.0000 6.2698 -13.1078 -1.2896 -4.1955 0.0000 0.0000 -17.7489 -31.5812 -1.8693 25.1636 0.0000 0.0000
 18.4207 35.3478 -24.0782 177.2614 -2.7946 179.3169 -12.5793 -1.8319 -0.6486 8.3184 -2.7958 1.5873 -30.7420 4.4726 16.9492 0.1148 -5.0425 -8.7440 2.8898 0.0000 10.2218 0.5887 8.3792 -4.0330 33.1476 -0.0000 26.2537 6.0630 -14.2208 -8.0667 -36.5834 4.7918 8.6326 6.5785 -0.0000 37.5623 1.3013 -10.3163 7.2293 32.8623 0.0000 -24.3270 6.8588 9.7680 2.6004 -6.3050 0.0000 0.0000 -17.6432 28.2989 3.4326 24.7259 -0.0000 0.0000 6.2628 -13.1137 -1.2858 -4.2045 -0.0000 -0.0000 -17.7256 -31.5840 -1.7944 24.8950 0.0000 0.0000
 18.4212 35.3480 -24.0775 177.2461 -2.7798 179.3090 -12.5981 -1.8277 -0.6300 8.3339 -2.7996 1.5643 -30.7393 4.4625 16.9301 0.1253 -5.0136 -8.7436 2.8838 0.0000 10.2039 0.5864 8.3591 -4.0270 33.1476 -0.0000 26.2537 6.0489 -14.1946 -8.0780 -36.5437 4.7853 8.6218 6.5560 -0.0000 37.5143 1.3116 -10.4592 7.1886 32.8623 0.0000 -24.3270 6.8488 9.7770 2.6057 -6.3151 -0.0000 0.0000 -17.6264 28.2919 3.4644 24.6769 0.0000 0.0000 6.2476 -13.1243 -1.2774 -4.2134 -0.0000 -0.0000 -17.7236 -31.5863 -1.8550 25.0895 0.0000 -0.0000
 18.4221 35.3478 -24.0776 177.2295 -2.7640 179.3008 -12.6113 -1.8246 -0.6191 8.3332 -2.7878 1.5524 -30.7423 4.4787 16.9426 0.1443 -5.0329 -8.7694 2.8865 0.0000 10.1244 0.6009 8.2972 -4.1568 33.1476 -0.0000 26.2537 6.0569 -14.1959 -8.0702 -36.5470 4.7930 8.6199 6.5588 -0.0000 37.5454 1.3217 -10.4491 7.2501 32.8623 0.0000 -24.3270 6.8406 9.7795 2.6101 -6.3284 -0.0000 -0.0000 -17.6286 28.3134 3.4598 24.6595 -0.0000 0.0000 6.2402 -13.1176 -1.2673 -4.2335 -0.0000 -0.0000 -17.7116 -31.5749 -1.8694 25.1142 0.0000 -0.0000
 18.4228 35.3480 -24.0781 177.2247 -2.7424 179.2976 -12.6170 -1.8103 -0.6140 8.3477 -2.7918 1.5451 -30.7159 4.4939 16.9342 0.1397 -5.0471 -8.7735 2.8906 0.0000 10.1144 0.6046 8.3142 -4.1737 33.1476 -0.0000 26.2537 6.0625 -14.1986 -8.0636 -36.5671 4.8039 8.6302 6.5445 -0.0000 37.5475 1.3246 -10.4488 7.2659 32.8623 0.0000 -24.3270 6.8461 9.8090 2.6111 -6.3451 0.0000 0.0000 -17.6403 28.3152 3.4500 24.7603 0.0000 -0.0000 6.2385 -13.1088 -1.2627 -4.2429 -0.0000 0.0000 -17.7094 -31.5374 -1.8554 25.0068 0.0000 -0.0000
 18.4232 35.3478 -24.0778 177.2080 -2.7356 179.2917 -12.6308 -1.8038 -0.6036 8.3505 -2.7853 1.5319 -30.7073 4.5030 16.9188 0.1445 -5.0602 -8.7773 2.8941 0.0000 10.1144 0.6068 8.3317 -4.1800 33.1476 -0.0000 26.2537 6.0541 -14.2077 -8.0682 -36.5308 4.8088 8.6418 6.5247 -0.0000 37.4362 1.3097 -10.4268 7.1997 32.8623 0.0000 -24.3270 6.8366 9.7979 2.6147 -6.3616 -0.0000 -0.0000 -17.6394 28.3508 3.4454 24.7549 0.0000 -0.0000 6.2210 -13.1380 -1.2542 -4.2459 0.0000 0.0000 -17.6994 -31.5198 -1.8259 24.9121 -0.0000 -0.0000
 18.4230 35.3476 -24.0783 177.2031 -2.7168 179.2912 -12.6296 -1.8082 -0.6025 8.3257 -2.7685 1.5481 -30.7337 4.5236 16.9352 0.1668 -5.0796 -8.7999 2.9027 0.0000 10.1596 0.5934 8.4063 -4.0528 33.1476 -0.0000 26.2537 6.0444 -14.1931 -8.0667 -36.5545 4.8073 8.6516 6.5187 -0.0000 37.4814 1.3113 -10.3963 7.2291 32.8623 0.0000 -24.3270 6.8413 9.8060 2.6111 -6.3694 0.0000 0.0000 -17.6127 28.3443 3.4604 24.7330 -0.0000 0.0000 6.2146 -13.1462 -1.2537 -4.2484 -0.0000 0.0000 -17.6927 -31.4984 -1.8311 24.9416 0.0000 -0.0000
 18.4228 35.3478 -24.0786 177.1959 -2.7050 179.2923 -12.6389 -1.8076 -0.6023 8.3422 -2.7392 1.5432 -30.7262 4.5356 16.9180 0.1893 -5.0895 -8.7854 2.8990 0.0000 10.1561 0.6014 8.4117 -4.1041 33.1476 -0.0000 26.2537 6.0362 -14.1879 -8.0696 -36.5352 4.8052 8.6640 6.5286 -0.0000 37.4603 1.3156 -10.4148 7.2401 32.8623 0.0000 -24.3270 6.8400 9.8212 2.6080 -6.3796 -0.0000 0.0000 -17.6211 28.3562 3.4340 24.7400 0.0000 -0.0000 6.2106 -13.1439 -1.2549 -4.2611 0.0000 -0.0000 -17.6822 -31.4960 -1.8210 25.0416 -0.0000 0.0000
